Coordinates
version=1
nRows=6
nColumns=46
inDegrees=yes

Units are S.I. units (second, meters, Newtons, ...)
Angles are in degrees.

endheader
time	pelvis_tilt	pelvis_list	pelvis_rotation	pelvis_tx	pelvis_ty	pelvis_tz	bb_angle	bb_tx	bb_ty	bb_tz	hip_flexion_r	hip_adduction_r	hip_rotation_r	knee_angle_r	knee_angle_r_beta	ankle_angle_r	subtalar_angle_r	mtp_angle_r	crank_angle_r	hip_flexion_l	hip_adduction_l	hip_rotation_l	knee_angle_l	knee_angle_l_beta	ankle_angle_l	subtalar_angle_l	mtp_angle_l	crank_angle_l	lumbar_extension	lumbar_bending	lumbar_rotation	arm_flex_r	arm_add_r	arm_rot_r	elbow_flex_r	pro_sup_r	wrist_flex_r	wrist_dev_r	arm_flex_l	arm_add_l	arm_rot_l	elbow_flex_l	pro_sup_l	wrist_flex_l	wrist_dev_l
      7.50500000	    -21.10453227	     -2.83165044	      4.14028813	      0.36140469	      1.14934285	     -0.25108176	      0.00000000	      0.50000000	      0.00000000	      0.25000000	     58.80801695	     -2.40362044	      0.83469891	     98.96279559	      1.72722662	    -10.58942224	    -13.48940869	      0.00000000	      0.00000000	     42.43255176	     -1.56363423	      8.68948274	     36.25250137	      0.63272551	    -16.80921596	    -15.44815300	      0.00000000	      0.00000000	    -67.70587824	      4.52498678	     -4.27920038	     56.22733216	    -15.47592314	     20.98606928	     77.59595597	     52.15700393	      0.00000000	      0.00000000	     48.65972753	    -24.47629839	     17.19451544	     90.21879701	     50.49924869	      0.00000000	      0.00000000
      7.51000000	    -21.12467562	     -3.58052019	      4.02462606	      0.36112831	      1.14810506	     -0.25101117	      0.00000000	      0.50000000	      0.00000000	      0.25000000	     60.33810910	     -1.97778748	      0.28532989	    100.76493618	      1.75867991	     -9.87572894	    -13.66297912	      0.00000000	      0.00000000	     41.21586488	     -2.60763710	      8.46050164	     34.33169644	      0.59920114	    -17.93887984	    -14.54963419	      0.00000000	      0.00000000	    -67.47632009	      5.08279779	     -3.59278893	     56.38555063	    -15.30835180	     21.14759365	     77.58075294	     52.16442581	      0.00000000	      0.00000000	     48.21670664	    -24.56447368	     17.05722236	     90.18857599	     50.48469228	      0.00000000	      0.00000000
      7.51500000	    -21.02599289	     -4.03000517	      3.85867941	      0.36091806	      1.14717413	     -0.25100621	      0.00000000	      0.50000000	      0.00000000	      0.25000000	     61.74601508	     -1.75316771	      0.04025370	    102.47862197	      1.78858937	     -9.04154148	    -13.15716923	      0.00000000	      0.00000000	     39.76803864	     -3.42672540	      7.92806661	     32.36290036	      0.56483917	    -19.33876140	    -13.96451874	      0.00000000	      0.00000000	    -67.42863938	      5.63353833	     -3.68742930	     57.13279589	    -14.73241454	     22.51246855	     76.69206717	     52.18500518	      0.00000000	      0.00000000	     46.83649778	    -24.72924119	     15.14587409	     90.93281363	     50.46847608	      0.00000000	      0.00000000
      7.52000000	    -21.04816835	     -4.55664656	      3.68644648	      0.36055682	      1.14599598	     -0.25069587	      0.00000000	      0.50000000	      0.00000000	      0.25000000	     63.30969932	     -1.53611224	     -0.39349063	    104.05758459	      1.81614746	     -8.50085469	    -13.13307131	      0.00000000	      0.00000000	     38.58448644	     -4.39602597	      7.26408568	     30.66277014	      0.53516630	    -20.33661676	    -12.75078976	      0.00000000	      0.00000000	    -67.24195368	      6.06191543	     -3.19888262	     57.22838432	    -14.52330708	     22.73838508	     76.67594160	     52.20262915	      0.00000000	      0.00000000	     46.40694986	    -24.86809539	     14.96149480	     90.87509322	     50.44862676	      0.00000000	      0.00000000
      7.52500000	    -21.10043961	     -5.08699901	      3.62035484	      0.36024183	      1.14479355	     -0.25057527	      0.00000000	      0.50000000	      0.00000000	      0.25000000	     64.86461394	     -1.42897933	     -0.90191366	    105.51127515	      1.84151915	     -7.94734313	    -13.21984243	      0.00000000	      0.00000000	     37.46613295	     -5.30636283	      6.63855462	     29.07212303	      0.50740427	    -21.18175197	    -11.54883214	      0.00000000	      0.00000000	    -67.05653554	      6.61633657	     -2.68129592	     57.39604647	    -14.37705099	     22.90311444	     76.70171580	     52.22341801	      0.00000000	      0.00000000	     46.05039432	    -24.97681487	     14.82510907	     90.82265721	     50.43459603	      0.00000000	      0.00000000
      7.53000000	    -20.98462720	     -5.38048422	      3.35218012	      0.36019356	      1.14380348	     -0.25000290	      0.00000000	      0.50000000	      0.00000000	      0.25000000	     66.24351890	     -1.25621114	     -1.09105396	    106.90489648	      1.86584243	     -7.07747585	    -13.14342219	      0.00000000	      0.00000000	     36.12763432	     -6.21908436	      5.47148376	     27.64118381	      0.48242967	    -21.59321106	     -9.65755618	      0.00000000	      0.00000000	    -67.03783087	      6.87636050	     -2.50104355	     57.64519762	    -14.11397416	     23.56243197	     76.54018971	     52.27116479	      0.00000000	      0.00000000	     45.39282313	    -25.11810446	     14.00469328	     90.90571713	     50.39017370	      0.00000000	      0.00000000
